<svg xmlns="http://www.w3.org/2000/svg" width="600" height="800" viewBox="0 0 600 800"><defs><radialGradient id="light" cx="0.5" cy="0.45" r=".75"><stop stop-color="#d4d1ba" stop-opacity=".12"/><stop offset="1" stop-color="#161717" stop-opacity="0"/></radialGradient><filter id="grain"><feTurbulence baseFrequency=".72" numOctaves="3" stitchTiles="stitch"/><feColorMatrix type="saturate" values="0"/><feComponentTransfer><feFuncA type="linear" slope=".09"/></feComponentTransfer><feBlend in="SourceGraphic" mode="soft-light"/></filter></defs><rect width="600" height="800" fill="#161717"/><rect width="600" height="800" fill="url(#light)"/><g filter="url(#grain)"><path d="M 50 180 Q 300 30 550 480" fill="none" stroke="#d4d1ba" stroke-width="3" opacity=".6"/><path d="M 50 197 Q 300 52 550 484" fill="none" stroke="#d4d1ba" stroke-width="1" opacity=".6"/><path d="M 50 214 Q 300 74 550 488" fill="none" stroke="#d4d1ba" stroke-width="1" opacity=".6"/><path d="M 50 231 Q 300 96 550 492" fill="none" stroke="#d4d1ba" stroke-width="1" opacity=".6"/><path d="M 50 248 Q 300 118 550 496" fill="none" stroke="#d4d1ba" stroke-width="1" opacity=".6"/><path d="M 50 265 Q 300 140 550 500" fill="none" stroke="#d4d1ba" stroke-width="3" opacity=".6"/><path d="M 50 282 Q 300 162 550 504" fill="none" stroke="#d4d1ba" stroke-width="1" opacity=".6"/><path d="M 50 299 Q 300 184 550 508" fill="none" stroke="#d4d1ba" stroke-width="1" opacity=".6"/><path d="M 50 316 Q 300 206 550 512" fill="none" stroke="#d4d1ba" stroke-width="1" opacity=".6"/><path d="M 50 333 Q 300 228 550 516" fill="none" stroke="#d4d1ba" stroke-width="1" opacity=".6"/><path d="M 50 350 Q 300 250 550 520" fill="none" stroke="#d4d1ba" stroke-width="3" opacity=".6"/><path d="M 50 367 Q 300 272 550 524" fill="none" stroke="#d4d1ba" stroke-width="1" opacity=".6"/><path d="M 50 384 Q 300 294 550 528" fill="none" stroke="#d4d1ba" stroke-width="1" opacity=".6"/><path d="M 50 401 Q 300 316 550 532" fill="none" stroke="#d4d1ba" stroke-width="1" opacity=".6"/><path d="M 50 418 Q 300 338 550 536" fill="none" stroke="#d4d1ba" stroke-width="1" opacity=".6"/><path d="M 50 435 Q 300 360 550 540" fill="none" stroke="#d4d1ba" stroke-width="3" opacity=".6"/><path d="M 50 452 Q 300 382 550 544" fill="none" stroke="#d4d1ba" stroke-width="1" opacity=".6"/><path d="M 50 469 Q 300 404 550 548" fill="none" stroke="#d4d1ba" stroke-width="1" opacity=".6"/><path d="M 50 486 Q 300 426 550 552" fill="none" stroke="#d4d1ba" stroke-width="1" opacity=".6"/><path d="M 50 503 Q 300 448 550 556" fill="none" stroke="#d4d1ba" stroke-width="1" opacity=".6"/><path d="M 50 520 Q 300 470 550 560" fill="none" stroke="#d4d1ba" stroke-width="3" opacity=".6"/><path d="M 50 537 Q 300 492 550 564" fill="none" stroke="#d4d1ba" stroke-width="1" opacity=".6"/><path d="M 50 554 Q 300 514 550 568" fill="none" stroke="#d4d1ba" stroke-width="1" opacity=".6"/><path d="M 50 571 Q 300 536 550 572" fill="none" stroke="#d4d1ba" stroke-width="1" opacity=".6"/><path d="M 50 588 Q 300 558 550 576" fill="none" stroke="#d4d1ba" stroke-width="1" opacity=".6"/></g><g fill="#d4d1ba" font-family="Arial,Helvetica,sans-serif"><text x="40" y="55" font-size="15" letter-spacing="4">UB CIRCUS</text><text x="560" y="55" text-anchor="end" font-size="12">STUDY / 04</text><text x="40" y="718" font-size="50" letter-spacing="-2">INTERLUDE</text><path d="M40 740H560" stroke="#d4d1ba" stroke-opacity=".4"/><text x="40" y="773" font-size="10" letter-spacing="2">ORIGINAL STAGE STUDY</text><text x="560" y="773" text-anchor="end" font-size="10">SAMPLE / 2026</text></g></svg>