<svg xmlns="http://www.w3.org/2000/svg" width="1600" height="900" viewBox="0 0 1600 900"><defs><radialGradient id="light" cx="0.8" cy="0.2" r=".75"><stop stop-color="#e6c7a2" stop-opacity=".12"/><stop offset="1" stop-color="#23090d" stop-opacity="0"/></radialGradient><filter id="grain"><feTurbulence baseFrequency=".72" numOctaves="3" stitchTiles="stitch"/><feColorMatrix type="saturate" values="0"/><feComponentTransfer><feFuncA type="linear" slope=".09"/></feComponentTransfer><feBlend in="SourceGraphic" mode="soft-light"/></filter></defs><rect width="1600" height="900" fill="#23090d"/><rect width="1600" height="900" fill="url(#light)"/><g filter="url(#grain)"><path d="M -40 900 C 400 520, 900 380, 1640 60" fill="none" stroke="#e6c7a2" stroke-width="1.8" opacity="0.12"/><path d="M -2 900 C 409 516, 894 385, 1640 63" fill="none" stroke="#e6c7a2" stroke-width="0.6" opacity="0.18"/><path d="M 36 900 C 418 512, 888 390, 1640 66" fill="none" stroke="#e6c7a2" stroke-width="0.6" opacity="0.24"/><path d="M 74 900 C 427 508, 882 395, 1640 69" fill="none" stroke="#e6c7a2" stroke-width="0.6" opacity="0.30"/><path d="M 112 900 C 436 504, 876 400, 1640 72" fill="none" stroke="#e6c7a2" stroke-width="0.6" opacity="0.36"/><path d="M 150 900 C 445 500, 870 405, 1640 75" fill="none" stroke="#e6c7a2" stroke-width="0.6" opacity="0.42"/><path d="M 188 900 C 454 496, 864 410, 1640 78" fill="none" stroke="#e6c7a2" stroke-width="0.6" opacity="0.48"/><path d="M 226 900 C 463 492, 858 415, 1640 81" fill="none" stroke="#e6c7a2" stroke-width="0.6" opacity="0.12"/><path d="M 264 900 C 472 488, 852 420, 1640 84" fill="none" stroke="#e6c7a2" stroke-width="1.8" opacity="0.18"/><path d="M 302 900 C 481 484, 846 425, 1640 87" fill="none" stroke="#e6c7a2" stroke-width="0.6" opacity="0.24"/><path d="M 340 900 C 490 480, 840 430, 1640 90" fill="none" stroke="#e6c7a2" stroke-width="0.6" opacity="0.30"/><path d="M 378 900 C 499 476, 834 435, 1640 93" fill="none" stroke="#e6c7a2" stroke-width="0.6" opacity="0.36"/><path d="M 416 900 C 508 472, 828 440, 1640 96" fill="none" stroke="#e6c7a2" stroke-width="0.6" opacity="0.42"/><path d="M 454 900 C 517 468, 822 445, 1640 99" fill="none" stroke="#e6c7a2" stroke-width="0.6" opacity="0.48"/><path d="M 492 900 C 526 464, 816 450, 1640 102" fill="none" stroke="#e6c7a2" stroke-width="0.6" opacity="0.12"/><path d="M 530 900 C 535 460, 810 455, 1640 105" fill="none" stroke="#e6c7a2" stroke-width="0.6" opacity="0.18"/><path d="M 568 900 C 544 456, 804 460, 1640 108" fill="none" stroke="#e6c7a2" stroke-width="1.8" opacity="0.24"/><path d="M 606 900 C 553 452, 798 465, 1640 111" fill="none" stroke="#e6c7a2" stroke-width="0.6" opacity="0.30"/><path d="M 644 900 C 562 448, 792 470, 1640 114" fill="none" stroke="#e6c7a2" stroke-width="0.6" opacity="0.36"/><path d="M 682 900 C 571 444, 786 475, 1640 117" fill="none" stroke="#e6c7a2" stroke-width="0.6" opacity="0.42"/><path d="M 720 900 C 580 440, 780 480, 1640 120" fill="none" stroke="#e6c7a2" stroke-width="0.6" opacity="0.48"/><path d="M 758 900 C 589 436, 774 485, 1640 123" fill="none" stroke="#e6c7a2" stroke-width="0.6" opacity="0.12"/><path d="M 796 900 C 598 432, 768 490, 1640 126" fill="none" stroke="#e6c7a2" stroke-width="0.6" opacity="0.18"/><path d="M 834 900 C 607 428, 762 495, 1640 129" fill="none" stroke="#e6c7a2" stroke-width="0.6" opacity="0.24"/><path d="M 872 900 C 616 424, 756 500, 1640 132" fill="none" stroke="#e6c7a2" stroke-width="1.8" opacity="0.30"/><path d="M 910 900 C 625 420, 750 505, 1640 135" fill="none" stroke="#e6c7a2" stroke-width="0.6" opacity="0.36"/><path d="M 948 900 C 634 416, 744 510, 1640 138" fill="none" stroke="#e6c7a2" stroke-width="0.6" opacity="0.42"/><path d="M 986 900 C 643 412, 738 515, 1640 141" fill="none" stroke="#e6c7a2" stroke-width="0.6" opacity="0.48"/><path d="M 1024 900 C 652 408, 732 520, 1640 144" fill="none" stroke="#e6c7a2" stroke-width="0.6" opacity="0.12"/><path d="M 1062 900 C 661 404, 726 525, 1640 147" fill="none" stroke="#e6c7a2" stroke-width="0.6" opacity="0.18"/><path d="M 1100 900 C 670 400, 720 530, 1640 150" fill="none" stroke="#e6c7a2" stroke-width="0.6" opacity="0.24"/><path d="M 1138 900 C 679 396, 714 535, 1640 153" fill="none" stroke="#e6c7a2" stroke-width="0.6" opacity="0.30"/><path d="M 1176 900 C 688 392, 708 540, 1640 156" fill="none" stroke="#e6c7a2" stroke-width="1.8" opacity="0.36"/><path d="M 1214 900 C 697 388, 702 545, 1640 159" fill="none" stroke="#e6c7a2" stroke-width="0.6" opacity="0.42"/><path d="M 1252 900 C 706 384, 696 550, 1640 162" fill="none" stroke="#e6c7a2" stroke-width="0.6" opacity="0.48"/><path d="M 1290 900 C 715 380, 690 555, 1640 165" fill="none" stroke="#e6c7a2" stroke-width="0.6" opacity="0.12"/><path d="M 1328 900 C 724 376, 684 560, 1640 168" fill="none" stroke="#e6c7a2" stroke-width="0.6" opacity="0.18"/><path d="M 1366 900 C 733 372, 678 565, 1640 171" fill="none" stroke="#e6c7a2" stroke-width="0.6" opacity="0.24"/><path d="M 1404 900 C 742 368, 672 570, 1640 174" fill="none" stroke="#e6c7a2" stroke-width="0.6" opacity="0.30"/><path d="M 1442 900 C 751 364, 666 575, 1640 177" fill="none" stroke="#e6c7a2" stroke-width="0.6" opacity="0.36"/><path d="M 1480 900 C 760 360, 660 580, 1640 180" fill="none" stroke="#e6c7a2" stroke-width="1.8" opacity="0.42"/><path d="M 1518 900 C 769 356, 654 585, 1640 183" fill="none" stroke="#e6c7a2" stroke-width="0.6" opacity="0.48"/><path d="M 1556 900 C 778 352, 648 590, 1640 186" fill="none" stroke="#e6c7a2" stroke-width="0.6" opacity="0.12"/><path d="M 1594 900 C 787 348, 642 595, 1640 189" fill="none" stroke="#e6c7a2" stroke-width="0.6" opacity="0.18"/><path d="M 1632 900 C 796 344, 636 600, 1640 192" fill="none" stroke="#e6c7a2" stroke-width="0.6" opacity="0.24"/><path d="M 1670 900 C 805 340, 630 605, 1640 195" fill="none" stroke="#e6c7a2" stroke-width="0.6" opacity="0.30"/></g><g fill="#e6c7a2" font-family="Arial,Helvetica,sans-serif"><text x="40" y="55" font-size="15" letter-spacing="4">UB CIRCUS</text><text x="1560" y="55" text-anchor="end" font-size="12">STUDY / 08</text><text x="40" y="818" font-size="44" letter-spacing="-2">ROPE TENSION</text><path d="M40 840H1560" stroke="#e6c7a2" stroke-opacity=".4"/><text x="40" y="873" font-size="10" letter-spacing="2">ORIGINAL STAGE STUDY</text><text x="1560" y="873" text-anchor="end" font-size="10">SAMPLE / 2026</text></g></svg>