<svg xmlns="http://www.w3.org/2000/svg" width="1600" height="900" viewBox="0 0 1600 900"><defs><radialGradient id="light" cx="0.2" cy="0" r=".75"><stop stop-color="#d4d1ba" stop-opacity=".12"/><stop offset="1" stop-color="#161717" stop-opacity="0"/></radialGradient><filter id="grain"><feTurbulence baseFrequency=".72" numOctaves="3" stitchTiles="stitch"/><feColorMatrix type="saturate" values="0"/><feComponentTransfer><feFuncA type="linear" slope=".09"/></feComponentTransfer><feBlend in="SourceGraphic" mode="soft-light"/></filter></defs><rect width="1600" height="900" fill="#161717"/><rect width="1600" height="900" fill="url(#light)"/><g filter="url(#grain)"><path d="M 300 -20 L 640 900 L 960 900 Z" fill="#d4d1ba" opacity=".07"/><path d="M 1300 -20 L 900 900 L 1180 900 Z" fill="#d4d1ba" opacity=".05"/><line x1="0" y1="560" x2="1600" y2="560" stroke="#d4d1ba" stroke-width=".5" opacity="0.220"/><line x1="0" y1="582" x2="1600" y2="582" stroke="#d4d1ba" stroke-width=".5" opacity="0.208"/><line x1="0" y1="604" x2="1600" y2="604" stroke="#d4d1ba" stroke-width=".5" opacity="0.196"/><line x1="0" y1="626" x2="1600" y2="626" stroke="#d4d1ba" stroke-width=".5" opacity="0.184"/><line x1="0" y1="648" x2="1600" y2="648" stroke="#d4d1ba" stroke-width=".5" opacity="0.172"/><line x1="0" y1="670" x2="1600" y2="670" stroke="#d4d1ba" stroke-width=".5" opacity="0.160"/><line x1="0" y1="692" x2="1600" y2="692" stroke="#d4d1ba" stroke-width=".5" opacity="0.148"/><line x1="0" y1="714" x2="1600" y2="714" stroke="#d4d1ba" stroke-width=".5" opacity="0.136"/><line x1="0" y1="736" x2="1600" y2="736" stroke="#d4d1ba" stroke-width=".5" opacity="0.124"/><line x1="0" y1="758" x2="1600" y2="758" stroke="#d4d1ba" stroke-width=".5" opacity="0.112"/><line x1="0" y1="780" x2="1600" y2="780" stroke="#d4d1ba" stroke-width=".5" opacity="0.100"/><line x1="0" y1="802" x2="1600" y2="802" stroke="#d4d1ba" stroke-width=".5" opacity="0.088"/><line x1="0" y1="824" x2="1600" y2="824" stroke="#d4d1ba" stroke-width=".5" opacity="0.076"/><line x1="0" y1="846" x2="1600" y2="846" stroke="#d4d1ba" stroke-width=".5" opacity="0.064"/><line x1="0" y1="868" x2="1600" y2="868" stroke="#d4d1ba" stroke-width=".5" opacity="0.052"/><line x1="0" y1="890" x2="1600" y2="890" stroke="#d4d1ba" stroke-width=".5" opacity="0.040"/></g><g fill="#d4d1ba" font-family="Arial,Helvetica,sans-serif"><text x="40" y="55" font-size="15" letter-spacing="4">UB CIRCUS</text><text x="1560" y="55" text-anchor="end" font-size="12">STUDY / 10</text><text x="40" y="818" font-size="44" letter-spacing="-2">SPOTLIGHT</text><path d="M40 840H1560" stroke="#d4d1ba" stroke-opacity=".4"/><text x="40" y="873" font-size="10" letter-spacing="2">ORIGINAL STAGE STUDY</text><text x="1560" y="873" text-anchor="end" font-size="10">SAMPLE / 2026</text></g></svg>